<?xml version="1.0" encoding="UTF-8" standalone="no"?>
<!DOCTYPE svg PUBLIC "-//W3C//DTD SVG 1.1//EN"
 "http://www.w3.org/Graphics/SVG/1.1/DTD/svg11.dtd">
<!-- Generated by graphviz version 2.47.3 (20210619.1520)
 -->
<!-- Title: dependencies Pages: 1 -->
<svg width="291pt" height="174pt"
 viewBox="0.00 0.00 291.00 173.80" xmlns="http://www.w3.org/2000/svg" xmlns:xlink="http://www.w3.org/1999/xlink">
<g id="graph0" class="graph" transform="scale(1 1) rotate(0) translate(4 169.8)">
<title>dependencies</title>
<polygon fill="white" stroke="transparent" points="-4,4 -4,-169.8 287,-169.8 287,4 -4,4"/>
<text text-anchor="middle" x="141.5" y="-8.2" font-family="sans-serif" font-size="14.00">dependencies</text>
<g id="clust1" class="cluster">
<title>cluster_AppModule</title>
<polygon fill="none" stroke="black" stroke-dasharray="1,5" points="8,-32.8 8,-157.8 275,-157.8 275,-32.8 8,-32.8"/>
</g>
<g id="clust6" class="cluster">
<title>cluster_AppModule_providers</title>
<polygon fill="none" stroke="black" points="16,-40.8 16,-92.8 267,-92.8 267,-40.8 16,-40.8"/>
</g>
<!-- AppService -->
<g id="node1" class="node">
<title>AppService</title>
<ellipse fill="#fdb462" stroke="black" cx="202" cy="-66.8" rx="56.74" ry="18"/>
<text text-anchor="middle" x="202" y="-62.6" font-family="Times,serif" font-size="14.00">AppService</text>
</g>
<!-- AppModule -->
<g id="node3" class="node">
<title>AppModule</title>
<polygon fill="#8dd3c7" stroke="black" points="180.66,-149.8 177.66,-153.8 156.66,-153.8 153.66,-149.8 97.34,-149.8 97.34,-113.8 180.66,-113.8 180.66,-149.8"/>
<text text-anchor="middle" x="139" y="-127.6" font-family="Times,serif" font-size="14.00">AppModule</text>
</g>
<!-- AppService&#45;&gt;AppModule -->
<g id="edge1" class="edge">
<title>AppService&#45;&gt;AppModule</title>
<path fill="none" stroke="black" d="M163.1,-79.95C163.1,-79.95 163.1,-103.49 163.1,-103.49"/>
<polygon fill="black" stroke="black" points="159.6,-103.49 163.1,-113.49 166.6,-103.49 159.6,-103.49"/>
</g>
<!-- DbService -->
<g id="node2" class="node">
<title>DbService</title>
<ellipse fill="#fdb462" stroke="black" cx="76" cy="-66.8" rx="51.58" ry="18"/>
<text text-anchor="middle" x="76" y="-62.6" font-family="Times,serif" font-size="14.00">DbService</text>
</g>
<!-- DbService&#45;&gt;AppModule -->
<g id="edge2" class="edge">
<title>DbService&#45;&gt;AppModule</title>
<path fill="none" stroke="black" d="M112.48,-79.64C112.48,-79.64 112.48,-103.32 112.48,-103.32"/>
<polygon fill="black" stroke="black" points="108.98,-103.32 112.48,-113.32 115.98,-103.32 108.98,-103.32"/>
</g>
</g>
</svg>
